<?xml version="1.0" encoding="utf-8"?>
<!-- Generator: Adobe Illustrator 22.0.1, SVG Export Plug-In . SVG Version: 6.00 Build 0)  -->
<svg version="1.1" id="Layer_1" xmlns="http://www.w3.org/2000/svg" xmlns:xlink="http://www.w3.org/1999/xlink" x="0px" y="0px"
	 viewBox="0 0 79 74.8" style="enable-background:new 0 0 79 74.8;" xml:space="preserve">
<title>53 all</title>
<path d="M79,71.7V3c0-1.7-1.3-3-3-3H3C1.3,0,0,1.3,0,3v50c0,1.7,1.3,3,3,3h51.8c16.1,15.7,19.4,18.9,21.3,18.9c0.5,0,1-0.2,1.4-0.5
	C78.4,73.8,79,72.8,79,71.7z M73,65.1c-4.2-3.9-10.3-9.8-14.9-14.3C57.5,50.3,56.8,50,56,50H6V6h67V65.1z"/>
<rect x="18.9" y="18.2" width="38" height="6"/>
<rect x="18.9" y="32.2" width="38" height="6"/>
</svg>
