<?xml version="1.0" encoding="utf-8"?>
<!-- Generator: Adobe Illustrator 22.0.1, SVG Export Plug-In . SVG Version: 6.00 Build 0)  -->
<svg version="1.1" id="Layer_1" xmlns:sketch="http://www.bohemiancoding.com/sketch/ns"
	 xmlns="http://www.w3.org/2000/svg" xmlns:xlink="http://www.w3.org/1999/xlink" x="0px" y="0px" viewBox="0 0 90 90"
	 style="enable-background:new 0 0 90 90;" xml:space="preserve">
<title>d1</title>
<desc>Created with Sketch.</desc>
<g sketch:type="MSPage">
	<path sketch:type="MSShapeGroup" d="M47.5,40.9c-11.2,6.5-22.3,13-33.6,19.4c-3.6,2-8.3,4.2-11,7.4c-4.2,5.1-3.8,13.1,0.6,17.8
		c0.1,0.2,0.3,0.3,0.4,0.5c0.2,0.2,0.3,0.3,0.5,0.4c3.5,3.2,8.6,4.3,13.1,2.9c5.4-1.6,7.8-5.9,10.4-10.5C35,66.8,42,54.6,49.1,42.5
		c0.3-0.5,0.2-1-0.2-1.4C48.6,40.8,48,40.6,47.5,40.9 M90,82.6V90H75.2v-7.4c0-37.3-30.4-67.7-67.7-67.7H0V0h7.4C53,0,90,37,90,82.6
		"/>
</g>
</svg>
